<svg width="100" height="100" viewBox="0 0 100 100" fill="none" xmlns="http://www.w3.org/2000/svg">
<path d="M95 50C95 74.8528 74.8528 95 50 95C25.1472 95 5 74.8528 5 50C5 25.1472 25.1472 5 50 5C74.8528 5 95 25.1472 95 50ZM15.3649 50C15.3649 69.1285 30.8715 84.6351 50 84.6351C69.1285 84.6351 84.6351 69.1285 84.6351 50C84.6351 30.8715 69.1285 15.3649 50 15.3649C30.8715 15.3649 15.3649 30.8715 15.3649 50Z" fill="#A0F1DE"/>
<circle cx="50" cy="50" r="30" fill="#020044"/>
<path d="M38 50L46.25 58.25L62 42.5" stroke="white" stroke-width="4"/>
</svg>
