<svg width="24" height="24" viewBox="0 0 24 24" fill="none" xmlns="http://www.w3.org/2000/svg">
<path d="M4.72705 9.27273C4.72705 5.25611 7.98316 2 11.9998 2C16.0164 2 19.2725 5.25611 19.2725 9.27273M19.2725 14.7273V14.9778C19.2725 15.453 19.0865 15.9092 18.7543 16.249L15.4438 19.6348C15.1017 19.9846 14.6331 20.1818 14.1438 20.1818H13.0718" stroke="#030822"/>
<path d="M3 9.5H5.13636V14.3158H3C2.72386 14.3158 2.5 14.0919 2.5 13.8158V10C2.5 9.72386 2.72386 9.5 3 9.5ZM18.8636 9.5H21C21.2761 9.5 21.5 9.72386 21.5 10V13.8158C21.5 14.0919 21.2761 14.3158 21 14.3158H18.8636V9.5ZM11.1818 19.5921H12.8182C13.0943 19.5921 13.3182 19.816 13.3182 20.0921V21C13.3182 21.2761 13.0943 21.5 12.8182 21.5H11.1818C10.9057 21.5 10.6818 21.2761 10.6818 21V20.0921C10.6818 19.816 10.9057 19.5921 11.1818 19.5921Z" stroke="#030822"/>
</svg>
