<svg width="24" height="24" viewBox="0 0 24 24" fill="none" xmlns="http://www.w3.org/2000/svg">
<path d="M21 4H3C2.44772 4 2 4.44772 2 5V19.3636C2 19.9159 2.44377 20.3636 2.99606 20.3636H21.0061C21.5584 20.3636 22 19.9159 22 19.3636V5C22 4.44772 21.5523 4 21 4Z" stroke="#030822"/>
<path d="M9 11.5352H10.3837C11.2064 11.5352 11.8023 11.4055 12.1715 11.146C12.4203 10.9664 12.5947 10.702 12.6621 10.4026H9.00333V9.30501H12.6787C12.4924 8.52885 11.831 8.12639 10.6947 8.09762H9V7H15.3828V8.09762H13.5751C13.823 8.45917 13.9867 8.87178 14.054 9.30501H15.3845V10.4026H14.0391C13.9603 10.8144 13.7743 11.1981 13.5002 11.5152C13.1339 11.9451 12.6511 12.2598 12.1099 12.4216V12.4499C12.8106 12.686 13.3444 13.2959 13.7115 14.2792L14.7093 17H13.289L12.396 14.4339C12.1686 13.7886 11.8538 13.3418 11.4514 13.0935C11.0397 12.8435 10.5658 12.715 10.0843 12.7226H9V11.5352Z" fill="#030822"/>
</svg>
