<svg width="24" height="24" viewBox="0 0 24 24" fill="none" xmlns="http://www.w3.org/2000/svg">
<path d="M3 22L2.52059 21.858C2.47579 22.0092 2.50499 22.1728 2.59937 22.2992C2.69375 22.4256 2.84225 22.5 3 22.5V22ZM21 22V22.5C21.1577 22.5 21.3062 22.4256 21.4006 22.2992C21.495 22.1728 21.5242 22.0092 21.4794 21.858L21 22ZM16.5 7C16.5 9.48528 14.4853 11.5 12 11.5V12.5C15.0376 12.5 17.5 10.0376 17.5 7H16.5ZM12 11.5C9.51472 11.5 7.5 9.48528 7.5 7H6.5C6.5 10.0376 8.96243 12.5 12 12.5V11.5ZM7.5 7C7.5 4.51472 9.51472 2.5 12 2.5V1.5C8.96243 1.5 6.5 3.96243 6.5 7H7.5ZM12 2.5C14.4853 2.5 16.5 4.51472 16.5 7H17.5C17.5 3.96243 15.0376 1.5 12 1.5V2.5ZM3.47941 22.142C4.62502 18.2748 8.0208 15.5 12 15.5V14.5C7.53277 14.5 3.7787 17.611 2.52059 21.858L3.47941 22.142ZM12 15.5C15.9792 15.5 19.375 18.2748 20.5206 22.142L21.4794 21.858C20.2213 17.611 16.4672 14.5 12 14.5V15.5ZM3 22.5H21V21.5H3V22.5Z" fill="#030822"/>
</svg>
