<svg width="0" height="0" class="hidden">
  <symbol fill="none" xmlns="http://www.w3.org/2000/svg" viewBox="0 0 24 24" id="ArrowDown">
    <path d="M5 8.75L12.25 16L19.5 8.75" stroke="#030822"></path>
  </symbol>
  <symbol fill="none" xmlns="http://www.w3.org/2000/svg" viewBox="0 0 24 24" id="ArrowLeft">
    <path d="M15.25 20L8 12.75L15.25 5.5" stroke="#030822"></path>
  </symbol>
  <symbol fill="none" xmlns="http://www.w3.org/2000/svg" viewBox="0 0 24 24" id="ArrowRight">
    <path d="M7.75 20L15 12.75L7.75 5.5" stroke="#030822"></path>
  </symbol>

  <symbol fill="none" xmlns="http://www.w3.org/2000/svg" viewBox="0 0 24 24" id="ArrowUp">
    <path d="M5 15.25L12.25 8L19.5 15.25" stroke="#030822"></path>
  </symbol>

  <symbol fill="none" xmlns="http://www.w3.org/2000/svg" viewBox="0 0 24 24" id="ArrowUp-red">
    <path d="M5 15.25L12.25 8L19.5 15.25" stroke="#f00"></path>
  </symbol>

  <symbol fill="none" xmlns="http://www.w3.org/2000/svg" viewBox="0 0 24 24" id="arrow_top_right">
    <path d="M19 9.375L19 5L14.625 5L19 9.375Z" fill="#030822"></path>
    <path d="M5 19L17.25 6.75" stroke="#030822"></path>
  </symbol>
  <symbol fill="none" xmlns="http://www.w3.org/2000/svg" viewBox="0 0 24 24" id="arrow-down">
    <path d="M4 14.4138L11.5862 22M11.5862 22L19.1724 14.4138M11.5862 22L11.5862 2" stroke="#030822"></path>
  </symbol>
  <symbol fill="none" xmlns="http://www.w3.org/2000/svg" viewBox="0 0 24 24" id="arrow-left">
    <path d="M9.58621 4L2 11.5862M2 11.5862L9.58621 19.1724M2 11.5862H22" stroke="#030822"></path>
  </symbol>
  <symbol fill="none" xmlns="http://www.w3.org/2000/svg" viewBox="0 0 24 24" id="arrow-right">
    <path d="M14.9999 4L21.9999 11.2586M21.9999 11.2586L14.9999 19.1724M21.9999 11.2586L2 11.2586" stroke="#030822"></path>
  </symbol>
  <symbol fill="none" xmlns="http://www.w3.org/2000/svg" viewBox="0 0 24 24" id="arrow-up">
    <path d="M4 9.58621L11.5862 2M11.5862 2L19.1724 9.58621M11.5862 2L11.5862 22" stroke="#030822"></path>
  </symbol>
  <symbol fill="none" xmlns="http://www.w3.org/2000/svg" viewBox="0 0 24 24" id="Bag">
    <path d="M16.7059 7.23529C16.7059 4.89621 14.8097 3 12.4706 3C10.1315 3 8.23529 4.89621 8.23529 7.23529M4 7.23529H20.9412V18.8824C20.9412 20.0519 19.9931 21 18.8235 21H6.11765C4.9481 21 4 20.0519 4 18.8824V7.23529Z" stroke="#030822"></path>
  </symbol>
   <symbol fill="none" xmlns="http://www.w3.org/2000/svg" viewBox="0 0 24 24" id="Bag-white">
    <path d="M16.7059 7.23529C16.7059 4.89621 14.8097 3 12.4706 3C10.1315 3 8.23529 4.89621 8.23529 7.23529M4 7.23529H20.9412V18.8824C20.9412 20.0519 19.9931 21 18.8235 21H6.11765C4.9481 21 4 20.0519 4 18.8824V7.23529Z" stroke="#FFFFFF"></path>
  </symbol>
  <symbol fill="none" xmlns="http://www.w3.org/2000/svg" viewBox="0 0 24 24" id="Caution">
    <g clip-path="url(#clip0_6769_23983)">
      <path d="M10.2314 2.10226L0.278394 19.3395C0.098608 19.6508 0.00393952 20.0039 0.00390626 20.3634C0.00387299 20.7228 0.0984761 21.076 0.278205 21.3873C0.457933 21.6986 0.716453 21.9571 1.02777 22.1368C1.3391 22.3166 1.69225 22.4112 2.05172 22.4111H21.9561C22.3156 22.4112 22.6687 22.3166 22.98 22.1368C23.2914 21.9571 23.5499 21.6986 23.7296 21.3873C23.9093 21.076 24.0039 20.7228 24.0039 20.3634C24.0039 20.0039 23.9092 19.6508 23.7294 19.3395L13.7775 2.10226C13.5978 1.79104 13.3393 1.5326 13.0281 1.35292C12.7169 1.17324 12.3638 1.07864 12.0044 1.07864C11.6451 1.07864 11.292 1.17324 10.9808 1.35292C10.6695 1.5326 10.4111 1.79104 10.2314 2.10226Z" fill="#FFB400"></path>
      <path d="M12.1323 7.41858H11.8727C11.2335 7.41858 10.7153 7.93674 10.7153 8.57592V14.1078C10.7153 14.747 11.2335 15.2651 11.8727 15.2651H12.1323C12.7715 15.2651 13.2897 14.747 13.2897 14.1078V8.57592C13.2897 7.93674 12.7715 7.41858 12.1323 7.41858Z" fill="white"></path>
      <path d="M12.0025 19.6525C12.7134 19.6525 13.2897 19.0762 13.2897 18.3654C13.2897 17.6545 12.7134 17.0782 12.0025 17.0782C11.2916 17.0782 10.7153 17.6545 10.7153 18.3654C10.7153 19.0762 11.2916 19.6525 12.0025 19.6525Z" fill="white"></path>
    </g>
    <defs>
      <clipPath id="clip0_6769_23983">
        <rect width="24" height="24" fill="white"></rect>
      </clipPath>
    </defs>
  </symbol>
  <symbol fill="none" xmlns="http://www.w3.org/2000/svg" viewBox="0 0 24 24" id="Checkmark">
    <path d="M4 12L9.5 17.5L20 7" stroke="#030822"></path>
  </symbol>
  <symbol fill="none" xmlns="http://www.w3.org/2000/svg" viewBox="0 0 24 24" id="Close">
    <path d="M17.3137 6L11.6569 11.6569M11.6569 11.6569L6 17.3137M11.6569 11.6569L17.3137 17.3137M11.6569 11.6569L6 6" stroke="#030822"></path>
  </symbol>
  <symbol fill="none" xmlns="http://www.w3.org/2000/svg" viewBox="0 0 24 24" id="delivery">
    <path d="M16 16V14.5V13M16 16H7.73244M16 16H16.2676M16 9.00001V5.00001L3.00006 5C2.44778 5 2.00006 5.44771 2.00006 5.99999L2 16H4.26756M16 9.00001H19.5L22 12V13M16 9.00001V13M22 13H16M22 13V16H19.7324M7.73244 16C7.38663 15.4022 6.74028 15 6 15C5.25972 15 4.61337 15.4022 4.26756 16M7.73244 16C7.90261 16.2942 8 16.6357 8 17C8 18.1046 7.10457 19 6 19C4.89543 19 4 18.1046 4 17C4 16.6357 4.09739 16.2942 4.26756 16M16.2676 16C16.0974 16.2942 16 16.6357 16 17C16 18.1046 16.8954 19 18 19C19.1046 19 20 18.1046 20 17C20 16.6357 19.9026 16.2942 19.7324 16M16.2676 16C16.6134 15.4022 17.2597 15 18 15C18.7403 15 19.3866 15.4022 19.7324 16" stroke="#030822"></path>
  </symbol>
  <symbol fill="none" xmlns="http://www.w3.org/2000/svg" viewBox="0 0 24 24" id="EyeCrossed">
    <g clip-path="url(#clip0_5601_9954)">
      <mask id="mask0_5601_9954" maskUnits="userSpaceOnUse" x="0" y="0" width="24" height="24">
        <path d="M21.5033 21.5L0.00325155 0L0 24H24V0H5.69812V3.57552L22.645 20.5233L21.5033 21.5Z" fill="white"></path>
      </mask>
      <g mask="url(#mask0_5601_9954)">
        <path d="M2.5 3L21 21.5" stroke="#030822"></path>
        <circle cx="12" cy="12" r="3.5" stroke="#030822"></circle>
        <path d="M12 18.5C7.18513 18.5 3.11517 15.7749 1.53942 12C3.11517 8.22513 7.18513 5.5 12 5.5C16.8149 5.5 20.8848 8.22513 22.4606 12C20.8848 15.7749 16.8149 18.5 12 18.5Z" stroke="#030822"></path>
      </g>
    </g>
    <defs>
      <clipPath id="clip0_5601_9954">
        <rect width="24" height="24" fill="white"></rect>
      </clipPath>
    </defs>
  </symbol>
  <symbol fill="none" xmlns="http://www.w3.org/2000/svg" viewBox="0 0 24 24" id="EyeOpen">
    <circle cx="12" cy="12" r="3.5" stroke="#030822"></circle>
    <path d="M12 18.5C7.18513 18.5 3.11517 15.7749 1.53942 12C3.11517 8.22513 7.18513 5.5 12 5.5C16.8149 5.5 20.8848 8.22513 22.4606 12C20.8848 15.7749 16.8149 18.5 12 18.5Z" stroke="#030822"></path>
  </symbol>
  <symbol fill="none" xmlns="http://www.w3.org/2000/svg" viewBox="0 0 24 24" id="facebook">
    <g clip-path="url(#clip0_6767_21562)">
      <path d="M21 0H3C1.3455 0 0 1.3455 0 3V21C0 22.6545 1.3455 24 3 24H21C22.6545 24 24 22.6545 24 21V3C24 1.3455 22.6545 0 21 0Z" fill="#1976D2"></path>
      <path d="M20.25 12H16.5V9C16.5 8.172 17.172 8.25 18 8.25H19.5V4.5H16.5C14.0145 4.5 12 6.5145 12 9V12H9V15.75H12V24H16.5V15.75H18.75L20.25 12Z" fill="#FAFAFA"></path>
    </g>
    <defs>
      <clipPath id="clip0_6767_21562">
        <rect width="24" height="24" fill="white"></rect>
      </clipPath>
    </defs>
  </symbol>

  <symbol fill="none" xmlns="http://www.w3.org/2000/svg" viewBox="0 0 24 24" id="Failure">
    <g clip-path="url(#clip0_6769_23924)">
      <path d="M12 0C9.62663 0 7.30655 0.703787 5.33316 2.02236C3.35977 3.34094 1.8217 5.21508 0.913451 7.4078C0.00519945 9.60051 -0.232441 12.0133 0.230582 14.3411C0.693604 16.6689 1.83649 18.807 3.51472 20.4853C5.19295 22.1635 7.33115 23.3064 9.65892 23.7694C11.9867 24.2324 14.3995 23.9948 16.5922 23.0865C18.7849 22.1783 20.6591 20.6402 21.9776 18.6668C23.2962 16.6935 24 14.3734 24 12C23.9962 8.81855 22.7308 5.76849 20.4811 3.51886C18.2315 1.26924 15.1814 0.00375324 12 0ZM16.6276 15.0862C16.7318 15.1868 16.8149 15.3072 16.8721 15.4403C16.9293 15.5734 16.9594 15.7165 16.9606 15.8614C16.9619 16.0062 16.9343 16.1499 16.8794 16.2839C16.8246 16.418 16.7436 16.5398 16.6412 16.6422C16.5387 16.7447 16.4169 16.8257 16.2829 16.8805C16.1488 16.9354 16.0051 16.963 15.8603 16.9617C15.7154 16.9605 15.5723 16.9304 15.4392 16.8732C15.3061 16.816 15.1857 16.7329 15.0851 16.6287L12 13.5425L8.91491 16.6287C8.70916 16.8274 8.4336 16.9374 8.14756 16.9349C7.86153 16.9324 7.58792 16.8177 7.38566 16.6154C7.18339 16.4132 7.06866 16.1396 7.06618 15.8535C7.06369 15.5675 7.17365 15.2919 7.37237 15.0862L10.4575 12L7.37237 8.91382C7.26817 8.81318 7.18507 8.69281 7.12789 8.55971C7.07072 8.42662 7.04063 8.28347 7.03937 8.13862C7.03811 7.99377 7.06571 7.85012 7.12056 7.71605C7.17541 7.58198 7.25642 7.46018 7.35884 7.35775C7.46127 7.25532 7.58308 7.17432 7.71714 7.11947C7.85121 7.06461 7.99486 7.03701 8.13971 7.03827C8.28456 7.03953 8.42771 7.06962 8.56081 7.1268C8.6939 7.18397 8.81428 7.26708 8.91491 7.37127L12 10.4575L15.0851 7.37127C15.1857 7.26708 15.3061 7.18397 15.4392 7.1268C15.5723 7.06962 15.7154 7.03953 15.8603 7.03827C16.0051 7.03701 16.1488 7.06461 16.2829 7.11947C16.4169 7.17432 16.5387 7.25532 16.6412 7.35775C16.7436 7.46018 16.8246 7.58198 16.8794 7.71605C16.9343 7.85012 16.9619 7.99377 16.9606 8.13862C16.9594 8.28347 16.9293 8.42662 16.8721 8.55971C16.8149 8.69281 16.7318 8.81318 16.6276 8.91382L13.5425 12L16.6276 15.0862Z" fill="#EF476F"></path>
    </g>
    <defs>
      <clipPath id="clip0_6769_23924">
        <rect width="24" height="24" fill="white"></rect>
      </clipPath>
    </defs>
  </symbol>
  <symbol fill="none" xmlns="http://www.w3.org/2000/svg" viewBox="0 0 24 24" id="Favourite">
    <path d="M7 3C4.23858 3 2 5.22222 2 8.22865C2 13.5556 12 20.7778 12 20.7778C12 20.7778 22 13.5556 22 8.22865C22 5.22222 19.7614 3 17 3C14.2386 3 12 6 12 6C12 6 9.76142 3 7 3Z" fill="white" stroke="#030822" stroke-miterlimit="2.49932"></path>
  </symbol>
  <symbol fill="none" xmlns="http://www.w3.org/2000/svg" viewBox="0 0 24 24" id="Filters">
    <path d="M4 16L16.5 16M19 14L19 18M11 6L11 8M11 10L11 8M4 8L8.5 8M20 8L11 8" stroke="#030822"></path>
  </symbol>
  <symbol fill="none" xmlns="http://www.w3.org/2000/svg" viewBox="0 0 24 24" id="gmail">
    <path d="M2 6C2 5.44772 2.44772 5 3 5H21C21.5523 5 22 5.44772 22 6V18C22 18.5523 21.5523 19 21 19H3C2.44772 19 2 18.5523 2 18V6Z" stroke="#030822"></path>
    <path d="M2 6L12 12L22 6" stroke="#030822"></path>
  </symbol>
  <symbol fill="none" xmlns="http://www.w3.org/2000/svg" viewBox="0 0 24 24" id="Google">
    <g clip-path="url(#clip0_6767_21543)">
      <path d="M5.31891 14.5035L4.4835 17.6222L1.43011 17.6868C0.517594 15.9943 0 14.0578 0 12C0 10.0101 0.483938 8.13362 1.34175 6.48132H1.34241L4.06078 6.9797L5.25159 9.68176C5.00236 10.4084 4.86652 11.1884 4.86652 12C4.86661 12.8809 5.02617 13.7249 5.31891 14.5035Z" fill="#FBBB00"></path>
      <path d="M23.7903 9.75824C23.9281 10.4841 24 11.2338 24 12C24 12.8591 23.9097 13.6971 23.7376 14.5055C23.1534 17.2563 21.627 19.6582 19.5125 21.358L19.5119 21.3574L16.088 21.1827L15.6034 18.1576C17.0064 17.3347 18.1029 16.047 18.6805 14.5055H12.2638V9.75824H18.7741H23.7903Z" fill="#518EF8"></path>
      <path d="M19.5118 21.3574L19.5125 21.358C17.456 23.011 14.8437 24 11.9999 24C7.43005 24 3.45688 21.4457 1.43005 17.6868L5.31885 14.5035C6.33224 17.2081 8.94126 19.1334 11.9999 19.1334C13.3146 19.1334 14.5463 18.778 15.6032 18.1576L19.5118 21.3574Z" fill="#28B446"></path>
      <path d="M19.6596 2.76262L15.7721 5.94525C14.6783 5.26153 13.3853 4.86656 12 4.86656C8.87213 4.86656 6.21431 6.88017 5.25169 9.68175L1.34245 6.48131H1.3418C3.33895 2.63077 7.36223 0 12 0C14.9117 0 17.5814 1.03716 19.6596 2.76262Z" fill="#F14336"></path>
    </g>
    <defs>
      <clipPath id="clip0_6767_21543">
        <rect width="24" height="24" fill="white"></rect>
      </clipPath>
    </defs>
  </symbol>
  <symbol fill="none" xmlns="http://www.w3.org/2000/svg" viewBox="0 0 24 24" id="Halfstar">
    <path d="M12 2L14.843 8.60163L22 9.26542L16.6 14.0093L18.1803 21.0211L12 17.3513L5.81966 21.0211L7.4 14.0093L2 9.26542L9.15704 8.60163L12 2Z" fill="#C3C9D6"></path>
    <path d="M5.81966 21.0211L12 17.3513V2L9.15704 8.60163L2 9.26542L7.4 14.0093L5.81966 21.0211Z" fill="#030822"></path>
  </symbol>
  <symbol fill="none" xmlns="http://www.w3.org/2000/svg" viewBox="0 0 24 24" id="headphones">
    <path d="M4.72705 9.27273C4.72705 5.25611 7.98316 2 11.9998 2C16.0164 2 19.2725 5.25611 19.2725 9.27273M19.2725 14.7273V14.9778C19.2725 15.453 19.0865 15.9092 18.7543 16.249L15.4438 19.6348C15.1017 19.9846 14.6331 20.1818 14.1438 20.1818H13.0718" stroke="#030822"></path>
    <path d="M2.5 10C2.5 9.72386 2.72386 9.5 3 9.5H5.13636V14.3158H3C2.72386 14.3158 2.5 14.0919 2.5 13.8158V10ZM18.8636 9.5H21C21.2761 9.5 21.5 9.72386 21.5 10V13.8158C21.5 14.0919 21.2761 14.3158 21 14.3158H18.8636V9.5ZM10.6818 20.0921C10.6818 19.816 10.9057 19.5921 11.1818 19.5921H12.8182C13.0943 19.5921 13.3182 19.816 13.3182 20.0921V21C13.3182 21.2761 13.0943 21.5 12.8182 21.5H11.1818C10.9057 21.5 10.6818 21.2761 10.6818 21V20.0921Z" stroke="#030822"></path>
  </symbol>
  <symbol fill="none" xmlns="http://www.w3.org/2000/svg" viewBox="0 0 24 24" id="instagram">
    <rect x="3" y="3" width="18" height="18" rx="3.6" stroke="#030822"></rect>
    <circle cx="17.4" cy="6.60001" r="0.9" fill="#030822"></circle>
    <circle cx="12" cy="12" r="4.5" stroke="#030822"></circle>
  </symbol>
  <symbol fill="none" xmlns="http://www.w3.org/2000/svg" viewBox="0 0 24 24" id="linkedln">
    <circle cx="4.8" cy="4.8" r="1.8" stroke="#030822"></circle>
    <path d="M3 8.84998H6.6V21H3V8.84998Z" stroke="#030822" stroke-linejoin="round"></path>
    <path d="M9.30005 21H12.9V14.7C12.9 13.7059 13.7059 12.9 14.7 12.9C15.6942 12.9 16.5 13.7059 16.5 14.7V21H20.1V14.7C20.1 11.7176 17.6824 9.29998 14.7 9.29998C14.0689 9.29998 13.4631 9.40825 12.9 9.60725V8.84998H9.30005V21ZM9.30005 21V14.7" stroke="#030822" stroke-linejoin="round"></path>
  </symbol>
  <symbol fill="none" xmlns="http://www.w3.org/2000/svg" viewBox="0 0 24 24" id="lock">
    <path d="M19.1261 10.2353V6C19.1261 3.79086 17.3352 2 15.126 2H9.68067C7.47153 2 5.68067 3.79086 5.68067 6V10.2353M19.1261 10.2353H5.68067M19.1261 10.2353H20.7067C20.762 10.2353 20.8067 10.2801 20.8067 10.3353V21C20.8067 21.5523 20.359 22 19.8067 22H5C4.44772 22 4 21.5523 4 21V10.3353C4 10.2801 4.04477 10.2353 4.1 10.2353H5.68067" stroke="#030822"></path>
  </symbol>
  <symbol fill="none" xmlns="http://www.w3.org/2000/svg" viewBox="0 0 24 24" id="menu">
    <path d="M3 5H12M3 12.2H21M12 19.4H21" stroke="#030822" stroke-linecap="square"></path>
  </symbol>
  <symbol fill="none" xmlns="http://www.w3.org/2000/svg" viewBox="0 0 24 24" id="money">
    <path d="M21 4H3C2.44772 4 2 4.44772 2 5V19.3636C2 19.9159 2.44377 20.3636 2.99606 20.3636H21.0061C21.5584 20.3636 22 19.9159 22 19.3636V5C22 4.44772 21.5523 4 21 4Z" stroke="#030822"></path>
    <path d="M9 12.0817H10.2453C10.9857 12.0817 11.522 11.9649 11.8543 11.7314C12.0782 11.5698 12.2352 11.3318 12.2959 11.0624H9.00299V10.0745H12.3108C12.1432 9.37597 11.5479 9.01375 10.5252 8.98786H9V8H14.7446V8.98786H13.1176C13.3407 9.31325 13.488 9.6846 13.5486 10.0745H14.746V11.0624H13.5352C13.4642 11.433 13.2969 11.7783 13.0502 12.0637C12.7205 12.4506 12.286 12.7338 11.7989 12.8794V12.9049C12.4295 13.1174 12.91 13.6663 13.2403 14.5513L14.1384 17H12.8601L12.0564 14.6905C11.8518 14.1098 11.5684 13.7076 11.2062 13.4841C10.8358 13.2592 10.4092 13.1435 9.97589 13.1503H9V12.0817Z" fill="#030822"></path>
  </symbol>
  <symbol fill="none" xmlns="http://www.w3.org/2000/svg" viewBox="0 0 24 24" id="pinterest">
    <path d="M6.6 19.2007C4.414 17.5587 3 14.9445 3 12C3 7.02944 7.02944 3 12 3C16.9706 3 21 7.02944 21 12C21 16.9706 16.9706 21 12 21C11.0158 21 10.0684 20.842 9.18196 20.55L11.55 11.55" stroke="#030822" stroke-linecap="round" stroke-linejoin="round"></path>
    <path d="M10.3553 16.19C10.8647 16.3901 11.4195 16.5 12 16.5C14.4853 16.5 16.5 14.4853 16.5 12C16.5 9.51472 14.4853 7.5 12 7.5C9.51472 7.5 7.5 9.51472 7.5 12C7.5 12.8196 7.71914 13.5881 8.10202 14.25" stroke="#030822" stroke-linecap="round"></path>
  </symbol>
  <symbol fill="none" xmlns="http://www.w3.org/2000/svg" viewBox="0 0 24 24" id="search">
    <path d="M14.9412 14.9412L22 22" stroke="#030822"></path>
    <circle cx="9.64706" cy="9.64706" r="7.14706" stroke="#030822"></circle>
  </symbol>
  <symbol fill="none" xmlns="http://www.w3.org/2000/svg" viewBox="0 0 24 24" id="Share">
    <path d="M14.6836 7.26349L8.18384 10.8088M14.6836 16.7365L8.18384 13.1912" stroke="#030822"></path>
    <path d="M19.5 6C19.5 7.38071 18.3807 8.5 17 8.5C15.6193 8.5 14.5 7.38071 14.5 6C14.5 4.61929 15.6193 3.5 17 3.5C18.3807 3.5 19.5 4.61929 19.5 6ZM8.5 12C8.5 13.3807 7.38071 14.5 6 14.5C4.61929 14.5 3.5 13.3807 3.5 12C3.5 10.6193 4.61929 9.5 6 9.5C7.38071 9.5 8.5 10.6193 8.5 12ZM19.5 18C19.5 19.3807 18.3807 20.5 17 20.5C15.6193 20.5 14.5 19.3807 14.5 18C14.5 16.6193 15.6193 15.5 17 15.5C18.3807 15.5 19.5 16.6193 19.5 18Z" stroke="#030822"></path>
  </symbol>
  <symbol fill="none" xmlns="http://www.w3.org/2000/svg" viewBox="0 0 24 24" id="Sort">
    <path d="M5 7.7931L8.5 4M8.5 4L12 7.7931M8.5 4L8.5 19.5" stroke="#030822"></path>
    <path d="M20 16.2069L16.5 20M16.5 20L13 16.2069M16.5 20L16.5 4.5" stroke="#030822"></path>
  </symbol>
  <symbol fill="none" xmlns="http://www.w3.org/2000/svg" viewBox="0 0 24 24" id="Star">
    <path d="M12 2L14.843 8.60163L22 9.26542L16.6 14.0093L18.1803 21.0211L12 17.3513L5.81966 21.0211L7.4 14.0093L2 9.26542L9.15704 8.60163L12 2Z" fill="#030822"></path>
  </symbol>
  <symbol fill="none" xmlns="http://www.w3.org/2000/svg" viewBox="0 0 24 24" id="Success">
    <g clip-path="url(#clip0_5611_17641)">
      <path d="M12 0C5.38293 0 0 5.38293 0 12C0 18.6171 5.38293 24 12 24C18.6171 24 24 18.6171 24 12C24 5.38293 18.6171 0 12 0Z" fill="#0E9778"></path>
      <path d="M18.082 9.45703L11.582 15.9569C11.387 16.1519 11.131 16.2501 10.875 16.2501C10.619 16.2501 10.363 16.1519 10.168 15.9569L6.91809 12.707C6.52698 12.316 6.52698 11.684 6.91809 11.293C7.30902 10.9019 7.94092 10.9019 8.33203 11.293L10.875 13.836L16.6681 8.04309C17.059 7.65198 17.6909 7.65198 18.082 8.04309C18.473 8.43402 18.473 9.06592 18.082 9.45703Z" fill="#FAFAFA"></path>
    </g>
    <defs>
      <clipPath id="clip0_5611_17641">
        <rect width="24" height="24" fill="white"></rect>
      </clipPath>
    </defs>
  </symbol>
  <symbol fill="none" xmlns="http://www.w3.org/2000/svg" viewBox="0 0 24 24" id="Ticket">
    <path d="M20 5H4.00003C3.44775 5 3.00003 5.44771 3.00003 5.99999L3 10C4.10457 10 5 10.8954 5 12C5 13.1046 4.10457 14 3 14L3.00003 18C3.00003 18.5523 3.44775 19 4.00003 19H20C20.5523 19 21 18.5523 21 18V14C19.8954 14 19 13.1046 19 12C19 10.8954 19.8954 10 21 10V6C21 5.44772 20.5523 5 20 5Z" stroke="#030822"></path>
    <path d="M11.4482 10.5456L12 9.26413L12.5518 10.5456C12.6677 10.8145 12.9212 10.9987 13.2127 11.0257L14.602 11.1546L13.5538 12.0754C13.3338 12.2686 13.237 12.5666 13.3013 12.8523L13.6081 14.2134L12.4084 13.501C12.1567 13.3515 11.8433 13.3515 11.5916 13.501L10.3919 14.2134L10.6987 12.8523C10.763 12.5666 10.6662 12.2686 10.4462 12.0754L9.39804 11.1546L10.7873 11.0257C11.0788 10.9987 11.3323 10.8145 11.4482 10.5456ZM14.9509 10.8481L14.9507 10.8482L14.9509 10.8481ZM9.99257 14.4505C9.99265 14.4504 9.99273 14.4504 9.99282 14.4503L9.99257 14.4505ZM12.1835 8.83794L12.1837 8.83759L12 8.75848L12.1837 8.83759C12.1836 8.8377 12.1836 8.83782 12.1835 8.83794Z" stroke="#030822" stroke-linecap="round" stroke-linejoin="round"></path>
  </symbol>
  <symbol fill="none" xmlns="http://www.w3.org/2000/svg" viewBox="0 0 24 24" id="twitter">
    <path d="M15.286 4C13.1821 4 11.4766 5.79086 11.4766 8C11.4766 8.33382 11.5156 8.65809 11.5889 8.96808C9.3 8.96808 5.7 8.44444 3 4.88889C3 13.7778 6.6 16.2963 8.4 16.4444C7.05 17.7778 4.9465 18.7647 3 18.9503C3.83744 19.7106 6.46043 19.9669 7.66725 20C13.9081 20 18.9805 14.7471 19.0934 8.22229C20.2903 7.44391 20.8588 5.33377 21 4.88889C20.4169 5.50119 19.2 5.77778 18.2303 5.46181C17.5317 4.56927 16.4721 4 15.286 4Z" stroke="#030822" stroke-linejoin="round"></path>
  </symbol>
  <symbol fill="none" xmlns="http://www.w3.org/2000/svg" viewBox="0 0 24 24" id="user">
    <path d="M3 22L2.52059 21.858C2.47579 22.0092 2.50499 22.1728 2.59937 22.2992C2.69375 22.4256 2.84225 22.5 3 22.5V22ZM21 22V22.5C21.1577 22.5 21.3062 22.4256 21.4006 22.2992C21.495 22.1728 21.5242 22.0092 21.4794 21.858L21 22ZM16.5 7C16.5 9.48528 14.4853 11.5 12 11.5V12.5C15.0376 12.5 17.5 10.0376 17.5 7H16.5ZM12 11.5C9.51472 11.5 7.5 9.48528 7.5 7H6.5C6.5 10.0376 8.96243 12.5 12 12.5V11.5ZM7.5 7C7.5 4.51472 9.51472 2.5 12 2.5V1.5C8.96243 1.5 6.5 3.96243 6.5 7H7.5ZM12 2.5C14.4853 2.5 16.5 4.51472 16.5 7H17.5C17.5 3.96243 15.0376 1.5 12 1.5V2.5ZM3.47941 22.142C4.62502 18.2748 8.0208 15.5 12 15.5V14.5C7.53277 14.5 3.7787 17.611 2.52059 21.858L3.47941 22.142ZM12 15.5C15.9792 15.5 19.375 18.2748 20.5206 22.142L21.4794 21.858C20.2213 17.611 16.4672 14.5 12 14.5V15.5ZM3 22.5H21V21.5H3V22.5Z" fill="#030822"></path>
  </symbol>
  <symbol fill="none" xmlns="http://www.w3.org/2000/svg" viewBox="0 0 24 24" id="whatsapp">
    <path d="M12 21C16.9706 21 21 16.9706 21 12C21 7.02944 16.9706 3 12 3C7.02946 3 3.00002 7.02944 3.00002 12C3.00002 13.3603 3.30181 14.6501 3.84208 15.8061L3.20071 19.762C3.10215 20.37 3.62958 20.8951 4.23707 20.7938L8.15686 20.1405C9.32234 20.6917 10.6252 21 12 21Z" stroke="#030822" stroke-linecap="square" stroke-linejoin="round"></path>
    <path d="M15.5999 14.8V14.4074C15.5999 13.9198 15.303 13.4813 14.8502 13.3002L14.4304 13.1322C13.961 12.9444 13.426 13.1478 13.1999 13.6C13.1999 13.6 12.1999 13.4 11.3999 12.6C10.5999 11.8 10.3999 10.8 10.3999 10.8C10.8521 10.5739 11.0555 10.039 10.8677 9.56957L10.6998 9.14969C10.5187 8.69692 10.0801 8.40002 9.59248 8.40002H9.1999C8.75807 8.40002 8.3999 8.7582 8.3999 9.20002C8.3999 12.7346 11.2653 15.6 14.7999 15.6C15.2417 15.6 15.5999 15.2419 15.5999 14.8Z" fill="#030822"></path>
  </symbol>
</svg>